<svg width="15" height="15" viewBox="0 0 15 15" fill="none" xmlns="http://www.w3.org/2000/svg">
<path d="M8.04865 14.1428C6.91584 14.1428 5.90732 13.9883 5.02308 13.6793C4.13885 13.3739 3.39134 12.9247 2.78054 12.3317C2.16974 11.7422 1.70455 11.0213 1.38494 10.169C1.06534 9.31676 0.90554 8.3473 0.90554 7.26065C0.90554 6.18821 1.06534 5.2152 1.38494 4.34162C1.7081 3.46804 2.17862 2.71875 2.79652 2.09375C3.41442 1.4652 4.16903 0.982244 5.06037 0.644886C5.95526 0.307528 6.97443 0.138849 8.1179 0.138849C9.17614 0.138849 10.1207 0.293323 10.9517 0.602273C11.7862 0.911222 12.4929 1.35156 13.0717 1.9233C13.6541 2.49148 14.0962 3.16797 14.3981 3.95277C14.7035 4.73402 14.8544 5.59872 14.8509 6.54688C14.8544 7.20028 14.7976 7.80043 14.6804 8.3473C14.5632 8.89418 14.3786 9.3718 14.1264 9.78018C13.8778 10.185 13.5511 10.5064 13.1463 10.7443C12.7415 10.9787 12.2514 11.1119 11.6761 11.1438C11.2642 11.1758 10.9304 11.1456 10.6747 11.0533C10.419 10.9609 10.2237 10.8242 10.0888 10.6431C9.95739 10.4585 9.87216 10.2436 9.8331 9.99858H9.76918C9.68395 10.2116 9.51705 10.4052 9.26847 10.5792C9.01989 10.7496 8.71626 10.8828 8.3576 10.9787C8.00249 11.071 7.62429 11.1048 7.22301 11.0799C6.80398 11.055 6.40625 10.9574 6.02983 10.7869C5.65696 10.6165 5.32493 10.3697 5.03374 10.0465C4.74609 9.72337 4.51882 9.32386 4.35192 8.84801C4.18857 8.37216 4.10511 7.82173 4.10156 7.19673C4.10511 6.57884 4.19212 6.04084 4.36257 5.58274C4.53658 5.12464 4.76563 4.73935 5.04972 4.42685C5.33736 4.11435 5.65696 3.86932 6.00852 3.69176C6.36009 3.5142 6.71342 3.40057 7.06854 3.35085C7.46982 3.29048 7.84979 3.29048 8.20845 3.35085C8.56712 3.41122 8.86896 3.50888 9.11399 3.64382C9.36257 3.77876 9.51705 3.92436 9.57741 4.08061H9.65199V3.48402H11.3192V8.68288C11.3228 8.92791 11.3778 9.1179 11.4844 9.25284C11.5909 9.38778 11.7347 9.45526 11.9158 9.45526C12.1609 9.45526 12.3651 9.34695 12.5284 9.13033C12.6953 8.91371 12.8196 8.58168 12.9013 8.13423C12.9865 7.68679 13.0291 7.11683 13.0291 6.42436C13.0291 5.75675 12.9403 5.17081 12.7628 4.66655C12.5888 4.15874 12.3438 3.72727 12.0277 3.37216C11.7152 3.01349 11.3512 2.7223 10.9357 2.49858C10.5202 2.27486 10.0692 2.11151 9.58274 2.00852C9.09979 1.90554 8.60263 1.85405 8.09126 1.85405C7.20703 1.85405 6.43466 1.98899 5.77415 2.25888C5.11364 2.52521 4.56321 2.89986 4.12287 3.38281C3.68253 3.86577 3.35227 4.43217 3.1321 5.08203C2.91548 5.72834 2.8054 6.43324 2.80185 7.19673C2.8054 8.03835 2.92259 8.78409 3.15341 9.43395C3.38778 10.0803 3.73224 10.6236 4.18679 11.0639C4.64134 11.5043 5.20241 11.8381 5.87003 12.0653C6.53764 12.2926 7.30469 12.4062 8.17116 12.4062C8.57955 12.4062 8.97905 12.3761 9.36967 12.3157C9.7603 12.2589 10.1136 12.1879 10.4297 12.1026C10.7457 12.021 10.9996 11.9411 11.1914 11.8629L11.7188 13.4077C11.495 13.5355 11.1914 13.6545 10.8079 13.7646C10.4279 13.8782 9.99822 13.9688 9.51882 14.0362C9.04297 14.1072 8.55291 14.1428 8.04865 14.1428ZM7.80362 9.32741C8.23686 9.32741 8.58132 9.24396 8.837 9.07706C9.09624 8.91016 9.28089 8.66335 9.39098 8.33665C9.50462 8.00639 9.55788 7.59979 9.55078 7.11683C9.54723 6.6907 9.49219 6.33026 9.38565 6.03551C9.28267 5.73722 9.10334 5.51172 8.84766 5.35902C8.59553 5.20277 8.24396 5.12464 7.79297 5.12464C7.39879 5.12464 7.06321 5.2081 6.78622 5.375C6.51278 5.5419 6.30327 5.77628 6.15767 6.07812C6.01563 6.37642 5.94283 6.72798 5.93928 7.13281C5.94283 7.50923 6.0032 7.86612 6.12038 8.20348C6.23757 8.53729 6.43111 8.80895 6.70099 9.01847C6.97088 9.22443 7.33842 9.32741 7.80362 9.32741Z" fill="#656565"/>
</svg>
