<svg width="55" height="55" viewBox="0 0 55 55" fill="none" xmlns="http://www.w3.org/2000/svg">
<rect width="55" height="55" rx="4" fill="#333333"/>
<path d="M28 29C28.55 29 29.021 28.804 29.413 28.412C29.8043 28.0207 30 27.55 30 27C30 26.45 29.8043 25.979 29.413 25.587C29.021 25.1957 28.55 25 28 25C27.45 25 26.9793 25.1957 26.588 25.587C26.196 25.979 26 26.45 26 27C26 27.55 26.196 28.0207 26.588 28.412C26.9793 28.804 27.45 29 28 29ZM24 33H32V32.425C32 32.025 31.8917 31.6583 31.675 31.325C31.4583 30.9917 31.1583 30.7417 30.775 30.575C30.3417 30.3917 29.896 30.25 29.438 30.15C28.9793 30.05 28.5 30 28 30C27.5 30 27.0207 30.05 26.562 30.15C26.104 30.25 25.6583 30.3917 25.225 30.575C24.8417 30.7417 24.5417 30.9917 24.325 31.325C24.1083 31.6583 24 32.025 24 32.425V33ZM34 37H22C21.45 37 20.9793 36.8043 20.588 36.413C20.196 36.021 20 35.55 20 35V19C20 18.45 20.196 17.979 20.588 17.587C20.9793 17.1957 21.45 17 22 17H29.175C29.4417 17 29.696 17.05 29.938 17.15C30.1793 17.25 30.3917 17.3917 30.575 17.575L35.425 22.425C35.6083 22.6083 35.75 22.8207 35.85 23.062C35.95 23.304 36 23.5583 36 23.825V35C36 35.55 35.8043 36.021 35.413 36.413C35.021 36.8043 34.55 37 34 37Z" fill="white"/>
</svg>
