<svg width="49" height="49" viewBox="0 0 49 49" fill="none" xmlns="http://www.w3.org/2000/svg">
<rect width="49" height="49" rx="4" fill="#333333"/>
<path d="M21.3748 34.2222C22.3336 34.2222 23.1109 33.4449 23.1109 32.4861C23.1109 31.5273 22.3336 30.75 21.3748 30.75C20.416 30.75 19.6387 31.5273 19.6387 32.4861C19.6387 33.4449 20.416 34.2222 21.3748 34.2222Z" fill="white"/>
<path d="M30.4021 34.2222C31.361 34.2222 32.1382 33.4449 32.1382 32.4861C32.1382 31.5273 31.361 30.75 30.4021 30.75C29.4433 30.75 28.666 31.5273 28.666 32.4861C28.666 33.4449 29.4433 34.2222 30.4021 34.2222Z" fill="white"/>
<path d="M34.9856 16.4375C34.9209 16.3534 34.8379 16.2853 34.7428 16.2384C34.6477 16.1914 34.5431 16.1669 34.437 16.1666H18.3954L18.0829 15.1736C18.0485 15.0669 17.9889 14.9702 17.9091 14.8916C17.8293 14.813 17.7317 14.7549 17.6245 14.7222L14.7773 13.8472C14.6897 13.8203 14.5978 13.8109 14.5066 13.8195C14.4154 13.8282 14.3268 13.8547 14.2459 13.8976C14.0824 13.9842 13.9601 14.1322 13.9058 14.309C13.8514 14.4858 13.8696 14.6769 13.9562 14.8404C14.0428 15.0038 14.1908 15.1262 14.3676 15.1805L16.8606 15.9444L20.0412 25.993L18.9092 26.9236L18.819 27.0138C18.539 27.338 18.3804 27.7493 18.3703 28.1775C18.3602 28.6057 18.4991 29.024 18.7634 29.3611C18.9527 29.5912 19.1932 29.7739 19.4657 29.8945C19.7382 30.0151 20.0352 30.0702 20.3329 30.0555H31.9231C32.1073 30.0555 32.2839 29.9823 32.4142 29.8521C32.5444 29.7219 32.6176 29.5452 32.6176 29.3611C32.6176 29.1769 32.5444 29.0002 32.4142 28.87C32.2839 28.7398 32.1073 28.6666 31.9231 28.6666H20.2217C20.1418 28.6639 20.0639 28.6406 19.9955 28.5989C19.9272 28.5573 19.8708 28.4988 19.8317 28.4289C19.7926 28.3591 19.7721 28.2804 19.7723 28.2004C19.7726 28.1204 19.7934 28.0418 19.8329 27.9722L21.5065 26.5833H32.2217C32.3804 26.5879 32.5358 26.5381 32.6622 26.442C32.7885 26.346 32.8782 26.2096 32.9162 26.0555L35.1384 17.0277C35.1595 16.9242 35.1567 16.8172 35.1303 16.7149C35.1038 16.6126 35.0543 16.5177 34.9856 16.4375Z" fill="white"/>
</svg>
