<svg width="28" height="22" viewBox="0 0 28 22" fill="none" xmlns="http://www.w3.org/2000/svg">
<path d="M27.422 3.68013C27.3392 3.57256 27.2328 3.48539 27.1111 3.4253C26.9894 3.36521 26.8555 3.33379 26.7198 3.33346H6.18644L5.78644 2.06235C5.7425 1.92587 5.6662 1.80205 5.56404 1.70144C5.46189 1.60083 5.33691 1.52643 5.19977 1.48458L1.55533 0.364576C1.44327 0.330141 1.32552 0.318114 1.20881 0.329184C1.0921 0.340254 0.978716 0.374203 0.875127 0.429092C0.66592 0.539947 0.509318 0.729369 0.439773 0.955687C0.370227 1.18201 0.393434 1.42668 0.504289 1.63589C0.615144 1.8451 0.804566 2.0017 1.03088 2.07124L4.222 3.04902L8.29311 15.9112L6.84422 17.1024L6.72866 17.2179C6.37035 17.6328 6.16734 18.1593 6.15437 18.7074C6.1414 19.2554 6.31927 19.791 6.65755 20.2224C6.89983 20.517 7.20769 20.7508 7.55652 20.9052C7.90535 21.0595 8.28546 21.1301 8.66644 21.1112H23.502C23.7377 21.1112 23.9638 21.0176 24.1305 20.8509C24.2972 20.6842 24.3909 20.4581 24.3909 20.2224C24.3909 19.9866 24.2972 19.7605 24.1305 19.5938C23.9638 19.4271 23.7377 19.3335 23.502 19.3335H8.52422C8.42186 19.33 8.32213 19.3001 8.23467 19.2468C8.14721 19.1936 8.07497 19.1186 8.02492 19.0292C7.97488 18.9399 7.94873 18.8391 7.949 18.7367C7.94926 18.6343 7.97593 18.5337 8.02644 18.4446L10.1687 16.6668H23.8842C24.0873 16.6727 24.2862 16.6089 24.448 16.486C24.6097 16.3631 24.7244 16.1885 24.7731 15.9912L27.6175 4.43569C27.6446 4.30317 27.641 4.16623 27.6071 4.0353C27.5732 3.90437 27.5099 3.78289 27.422 3.68013Z" fill="black"/>
</svg>
