<svg width="16" height="14" viewBox="0 0 16 14" fill="none" xmlns="http://www.w3.org/2000/svg">
<path d="M13.9205 7.86406L13.9395 12.2418C13.9395 12.3184 13.9341 12.3895 13.9259 12.4633V12.9062C13.9259 13.5105 13.4391 14 12.838 14H12.4028C12.3729 14 12.3429 13.9754 12.313 13.9973C12.2749 13.9754 12.2369 14 12.1988 14H10.662C10.0609 14 9.57407 13.5105 9.57407 12.9062V10.5C9.57407 10.016 9.18513 9.625 8.7037 9.625H6.96296C6.48154 9.625 6.09259 10.016 6.09259 10.5V12.9062C6.09259 13.5105 5.60573 14 5.00463 14H3.4842C3.4434 14 3.4026 13.9973 3.36181 13.9945C3.32917 13.9973 3.29653 14 3.26389 14H2.8287C2.22788 14 1.74074 13.5105 1.74074 12.9062V9.84375C1.74074 9.81914 1.74156 9.7918 1.74319 9.76719V7.86406H0.87173C0.381331 7.86406 0 7.47852 0 6.98633C0 6.74023 0.081706 6.52148 0.272263 6.33008L7.24583 0.219187C7.43623 0.0273984 7.65382 0 7.84421 0C8.03461 0 8.2522 0.0547969 8.41811 0.191789L11.3148 2.75352V1.75C11.3148 1.26684 11.7038 0.875 12.1852 0.875H13.0556C13.537 0.875 13.9259 1.26684 13.9259 1.75V5.05859L15.362 6.33008C15.5796 6.52148 15.6911 6.74023 15.6612 6.98633C15.6612 7.47852 15.2532 7.86406 14.7909 7.86406H13.9205Z" fill="#656565"/>
</svg>
