<svg width="18" height="14" viewBox="0 0 18 14" fill="none" xmlns="http://www.w3.org/2000/svg">
<path d="M17.6255 2.88006C17.5235 2.51649 17.325 2.18732 17.051 1.92756C16.7692 1.65982 16.4238 1.46829 16.0475 1.37106C14.639 0.999813 8.99596 0.999813 8.99596 0.999813C6.64346 0.973047 4.29153 1.09077 1.95346 1.35231C1.57711 1.45672 1.23239 1.65253 0.949963 1.92231C0.672463 2.18931 0.471463 2.51856 0.366463 2.87931C0.114233 4.23812 -0.0083181 5.61782 0.000462887 6.99981C-0.00853711 8.38056 0.113713 9.75981 0.366463 11.1203C0.469213 11.4796 0.669463 11.8073 0.947713 12.0721C1.22596 12.3368 1.57246 12.5281 1.95346 12.6293C3.38071 12.9998 8.99596 12.9998 8.99596 12.9998C11.3515 13.0266 13.7064 12.9089 16.0475 12.6473C16.4238 12.5501 16.7692 12.3586 17.051 12.0908C17.3249 11.8311 17.5232 11.5019 17.6247 11.1383C17.8835 9.78003 18.0094 8.39976 18.0005 7.01706C18.0199 5.62852 17.8942 4.24174 17.6255 2.87931V2.88006ZM7.20196 9.56781V4.43256L11.897 7.00056L7.20196 9.56781Z" fill="#FF1616"/>
</svg>
