<svg width="65" height="64" viewBox="0 0 65 64" fill="none" xmlns="http://www.w3.org/2000/svg">
<g clip-path="url(#clip0_333_58)">
<path d="M32.0509 62.4466C49.2954 62.4466 63.2747 48.4673 63.2747 31.2228C63.2747 13.9784 49.2954 -0.000976562 32.0509 -0.000976562C14.8065 -0.000976562 0.827148 13.9784 0.827148 31.2228C0.827148 48.4673 14.8065 62.4466 32.0509 62.4466Z" fill="url(#paint0_linear_333_58)"/>
<path d="M38.3618 15.6104H25.7409C23.275 15.6136 20.911 16.5946 19.1674 18.3383C17.4237 20.0819 16.4427 22.4459 16.4395 24.9118V37.5327C16.4427 39.9986 17.4237 42.3626 19.1674 44.1062C20.911 45.8499 23.275 46.8309 25.7409 46.8342H38.3618C40.8281 46.832 43.1926 45.8513 44.9365 44.1074C46.6804 42.3635 47.6611 39.999 47.6633 37.5327V24.9118C47.66 22.4459 46.679 20.0819 44.9353 18.3383C43.1917 16.5946 40.8277 15.6136 38.3618 15.6104V15.6104ZM44.5244 37.5327C44.5244 39.1672 43.8752 40.7346 42.7195 41.8904C41.5637 43.0461 39.9963 43.6953 38.3618 43.6953H25.7409C24.1064 43.6953 22.539 43.0461 21.3832 41.8904C20.2275 40.7346 19.5783 39.1672 19.5783 37.5327V24.9118C19.5783 23.2773 20.2275 21.7099 21.3832 20.5541C22.539 19.3984 24.1064 18.7492 25.7409 18.7492H38.3618C39.9963 18.7492 41.5637 19.3984 42.7195 20.5541C43.8752 21.7099 44.5244 23.2773 44.5244 24.9118V37.5327Z" fill="white"/>
<path d="M32.05 23.1506C30.4521 23.1498 28.8899 23.623 27.561 24.5102C26.2321 25.3974 25.1962 26.6588 24.5844 28.1349C23.9725 29.6109 23.8122 31.2353 24.1238 32.8025C24.4353 34.3697 25.2046 35.8093 26.3345 36.9391C27.4643 38.069 28.9039 38.8383 30.4711 39.1499C32.0383 39.4614 33.6627 39.3011 35.1387 38.6892C36.6148 38.0774 37.8762 37.0415 38.7634 35.7126C39.6506 34.3837 40.1238 32.8215 40.123 31.2236C40.1208 29.0832 39.2695 27.0311 37.756 25.5176C36.2425 24.0041 34.1904 23.1528 32.05 23.1506V23.1506ZM32.05 36.1537C31.0749 36.1537 30.1217 35.8646 29.311 35.3228C28.5002 34.7811 27.8683 34.0111 27.4952 33.1103C27.122 32.2094 27.0244 31.2182 27.2146 30.2618C27.4048 29.3055 27.8744 28.427 28.5639 27.7375C29.2534 27.0481 30.1318 26.5785 31.0882 26.3883C32.0445 26.1981 33.0358 26.2957 33.9366 26.6688C34.8375 27.042 35.6074 27.6739 36.1492 28.4846C36.6909 29.2954 36.98 30.2486 36.98 31.2236C36.98 32.5312 36.4606 33.7852 35.5361 34.7097C34.6115 35.6343 33.3575 36.1537 32.05 36.1537Z" fill="white"/>
<path d="M40.1734 25.1462C41.2762 25.1462 42.1701 24.2522 42.1701 23.1495C42.1701 22.0468 41.2762 21.1528 40.1734 21.1528C39.0707 21.1528 38.1768 22.0468 38.1768 23.1495C38.1768 24.2522 39.0707 25.1462 40.1734 25.1462Z" fill="white"/>
</g>
<defs>
<linearGradient id="paint0_linear_333_58" x1="32.0509" y1="62.159" x2="32.0509" y2="4.23067" gradientUnits="userSpaceOnUse">
<stop stop-color="#E09B3D"/>
<stop offset="0.24" stop-color="#C74C4D"/>
<stop offset="0.65" stop-color="#C21975"/>
<stop offset="1" stop-color="#7024C4"/>
</linearGradient>
<clipPath id="clip0_333_58">
<rect width="64" height="64" fill="white" transform="translate(0.826172)"/>
</clipPath>
</defs>
</svg>
