<svg width="65" height="64" viewBox="0 0 65 64" fill="none" xmlns="http://www.w3.org/2000/svg">
<g clip-path="url(#clip0_333_67)">
<path d="M31.8963 62.438C49.1383 62.438 63.1158 48.4606 63.1158 31.2185C63.1158 13.9765 49.1383 -0.000976562 31.8963 -0.000976562C14.6542 -0.000976562 0.676758 13.9765 0.676758 31.2185C0.676758 48.4606 14.6542 62.438 31.8963 62.438Z" fill="#0B69C7"/>
<path d="M24.9126 19.8677C24.9134 20.7114 24.664 21.5364 24.1957 22.2382C23.7275 22.94 23.0616 23.4872 22.2823 23.8104C21.503 24.1336 20.6454 24.2184 19.8179 24.054C18.9903 23.8896 18.2302 23.4835 17.6336 22.8869C17.0371 22.2903 16.6309 21.5302 16.4665 20.7027C16.3021 19.8752 16.3869 19.0175 16.7101 18.2382C17.0334 17.4589 17.5805 16.793 18.2823 16.3248C18.9842 15.8566 19.8091 15.6071 20.6528 15.6079C21.7822 15.609 22.8651 16.0581 23.6638 16.8568C24.4624 17.6554 24.9115 18.7383 24.9126 19.8677V19.8677Z" fill="white"/>
<path d="M22.8969 25.9055H18.4112C17.8281 25.9055 17.3555 26.3782 17.3555 26.9612V45.771C17.3555 46.354 17.8281 46.8267 18.4112 46.8267H22.8969C23.48 46.8267 23.9526 46.354 23.9526 45.771V26.9612C23.9526 26.3782 23.48 25.9055 22.8969 25.9055Z" fill="white"/>
<path d="M47.4025 36.7494V45.8565C47.4025 46.1136 47.3004 46.3602 47.1186 46.542C46.9368 46.7238 46.6902 46.826 46.4331 46.826H41.6187C41.3616 46.826 41.115 46.7238 40.9332 46.542C40.7514 46.3602 40.6493 46.1136 40.6493 45.8565V37.0329C40.6493 35.7143 41.0313 31.2819 37.2069 31.2819C34.2411 31.2819 33.6372 34.3299 33.5099 35.6978V45.8771C33.5045 46.1292 33.4012 46.3693 33.2217 46.5465C33.0422 46.7236 32.8008 46.8239 32.5486 46.826H27.8904C27.7629 46.8265 27.6366 46.8018 27.5187 46.7533C27.4009 46.7047 27.2938 46.6334 27.2036 46.5432C27.1135 46.4531 27.0421 46.346 26.9936 46.2281C26.9451 46.1103 26.9204 45.984 26.9209 45.8565V26.8783C26.9204 26.7507 26.945 26.6242 26.9935 26.5061C27.042 26.388 27.1133 26.2806 27.2034 26.1902C27.2935 26.0997 27.4005 26.0279 27.5184 25.979C27.6363 25.93 27.7627 25.9048 27.8904 25.9048H32.5486C32.6779 25.9026 32.8062 25.9262 32.9262 25.9741C33.0463 26.0221 33.1555 26.0934 33.2477 26.184C33.3398 26.2747 33.413 26.3827 33.463 26.5019C33.5129 26.6211 33.5386 26.7491 33.5386 26.8783V28.5215C34.6395 26.8783 36.2744 25.5967 39.7538 25.5967C47.4477 25.5926 47.4025 32.7936 47.4025 36.7494Z" fill="white"/>
</g>
<defs>
<clipPath id="clip0_333_67">
<rect width="64" height="64" fill="white" transform="translate(0.675781)"/>
</clipPath>
</defs>
</svg>
