<svg width="65" height="64" viewBox="0 0 65 64" fill="none" xmlns="http://www.w3.org/2000/svg">
<g clip-path="url(#clip0_333_52)">
<path d="M32.1955 62.4464C49.4399 62.4464 63.4193 48.467 63.4193 31.2226C63.4193 13.9782 49.4399 -0.0012207 32.1955 -0.0012207C14.9511 -0.0012207 0.97168 13.9782 0.97168 31.2226C0.97168 48.467 14.9511 62.4464 32.1955 62.4464Z" fill="#00A6DE"/>
<path d="M47.7441 21.7745C47.0061 22.8831 46.1043 23.8735 45.0696 24.712C44.9391 24.8207 44.8346 24.9571 44.7635 25.1114C44.6924 25.2656 44.6566 25.4337 44.6587 25.6035V25.7062C44.6467 27.9327 44.2377 30.1392 43.4509 32.2221C42.6401 34.4083 41.4357 36.4273 39.8971 38.1793C37.8296 40.533 35.1698 42.2906 32.1939 43.2696C30.2384 43.9043 28.1939 44.2219 26.1381 44.2104C22.8766 44.21 19.6732 43.3468 16.8531 41.7084C16.7521 41.651 16.6725 41.5621 16.6265 41.4553C16.5806 41.3486 16.5707 41.2297 16.5984 41.1168C16.6268 41.0057 16.6916 40.9073 16.7825 40.8373C16.8733 40.7674 16.985 40.7298 17.0996 40.7306H17.8802C20.3588 40.7367 22.7826 40.0013 24.8398 38.6189C23.6138 38.4204 22.4664 37.8872 21.524 37.0782C20.5816 36.2692 19.8808 35.2158 19.4989 34.0339C19.4794 33.9747 19.4758 33.9114 19.4886 33.8504C19.5015 33.7894 19.5302 33.7329 19.5719 33.6866C19.6136 33.6403 19.6669 33.6058 19.7262 33.5867C19.7855 33.5677 19.8489 33.5646 19.9098 33.5779C20.2837 33.6482 20.6632 33.684 21.0437 33.6847H21.1875C20.0025 33.1403 19.0006 32.2644 18.3029 31.1627C17.6051 30.0611 17.2414 28.7809 17.2557 27.4769C17.2562 27.4159 17.2724 27.356 17.3028 27.3032C17.3332 27.2503 17.3769 27.2062 17.4294 27.1751C17.4819 27.1441 17.5416 27.1272 17.6026 27.1261C17.6636 27.125 17.7239 27.1397 17.7775 27.1688C18.2595 27.4379 18.7767 27.6384 19.3141 27.7645C18.2518 26.7136 17.5686 25.3397 17.3715 23.8586C17.1745 22.3774 17.4748 20.8727 18.2253 19.5806C18.2537 19.531 18.2937 19.489 18.3419 19.4582C18.3901 19.4275 18.4451 19.4089 18.502 19.404C18.559 19.3992 18.6163 19.4082 18.669 19.4304C18.7217 19.4526 18.7682 19.4872 18.8046 19.5313C20.2885 21.3686 22.1262 22.8891 24.2088 24.0028C26.2915 25.1164 28.5765 25.8005 30.9285 26.0143H30.9613C30.9959 26.0133 31.0299 26.0053 31.0612 25.9908C31.0926 25.9762 31.1207 25.9554 31.1437 25.9297C31.1668 25.9039 31.1844 25.8737 31.1954 25.841C31.2064 25.8082 31.2107 25.7735 31.2078 25.7391C31.1161 24.9146 31.169 24.0804 31.364 23.274C31.629 22.178 32.1732 21.1691 32.9435 20.3456C33.7138 19.522 34.684 18.9117 35.7599 18.574C36.4503 18.3584 37.169 18.2476 37.8922 18.2454C39.532 18.2435 41.1159 18.8411 42.3457 19.9257C42.505 20.0682 42.7112 20.1472 42.925 20.1476C42.9944 20.1461 43.0633 20.1364 43.1304 20.1188C44.286 19.8268 45.3931 19.3687 46.4171 18.7589C46.4784 18.7211 46.5499 18.7032 46.6218 18.7076C46.6936 18.712 46.7624 18.7385 46.8186 18.7834C46.8748 18.8284 46.9158 18.8897 46.9358 18.9588C46.9559 19.028 46.9541 19.1017 46.9307 19.1698C46.5888 20.2453 45.9795 21.2164 45.16 21.9922C45.8983 21.8162 46.6189 21.5728 47.3128 21.265C47.3812 21.2386 47.4562 21.2341 47.5274 21.2523C47.5985 21.2705 47.6622 21.3103 47.7096 21.3663C47.7571 21.4223 47.7859 21.4917 47.7921 21.5649C47.7982 21.638 47.7815 21.7113 47.7441 21.7745V21.7745Z" fill="white"/>
</g>
<defs>
<clipPath id="clip0_333_52">
<rect width="64" height="64" fill="white" transform="translate(0.974609)"/>
</clipPath>
</defs>
</svg>
