<svg width="65" height="64" viewBox="0 0 65 64" fill="none" xmlns="http://www.w3.org/2000/svg">
<g clip-path="url(#clip0_333_44)">
<path d="M31.3478 62.4466C48.5923 62.4466 62.5716 48.4673 62.5716 31.2228C62.5716 13.9784 48.5923 -0.000976562 31.3478 -0.000976562C14.1034 -0.000976562 0.124023 13.9784 0.124023 31.2228C0.124023 48.4673 14.1034 62.4466 31.3478 62.4466Z" fill="#2AA81A"/>
<path d="M42.3626 20.2085C39.7644 17.5809 36.3124 15.9687 32.6298 15.6632C28.9471 15.3576 25.2766 16.3788 22.2809 18.5422C19.2851 20.7057 17.1616 23.869 16.2937 27.4609C15.4257 31.0528 15.8706 34.8366 17.5479 38.1293L15.9046 46.1078C15.887 46.1875 15.8863 46.27 15.9026 46.35C15.9189 46.4299 15.9517 46.5056 15.9991 46.5721C16.0669 46.6727 16.1638 46.7502 16.2769 46.7943C16.3899 46.8383 16.5138 46.8468 16.6318 46.8186L24.4377 44.9657C27.7214 46.599 31.478 47.0143 35.0391 46.1374C38.6002 45.2605 41.7346 43.1485 43.8844 40.1772C46.0342 37.2059 47.06 33.5682 46.779 29.9115C46.4981 26.2549 44.9288 22.8165 42.3503 20.2085H42.3626ZM39.9223 39.67C38.1253 41.4637 35.8114 42.6491 33.3058 43.0596C30.8003 43.4701 28.2291 43.0849 25.9537 41.9583L24.8609 41.416L20.0664 42.5499V42.4883L21.077 37.6527L20.543 36.601C19.3796 34.3195 18.9688 31.7281 19.3696 29.1986C19.7703 26.6691 20.9621 24.3316 22.7738 22.5215C25.0487 20.249 28.1326 18.9726 31.348 18.9726C34.5635 18.9726 37.6474 20.249 39.9223 22.5215L39.9757 22.5955C42.2209 24.8752 43.4743 27.9498 43.4628 31.1495C43.4513 34.3492 42.1757 37.4147 39.914 39.6782L39.9223 39.67Z" fill="white"/>
<path d="M39.5001 36.153C38.9126 37.0774 37.98 38.2072 36.8173 38.4907C34.7631 38.9837 31.6366 38.4907 27.7213 34.8712L27.672 34.826C24.2662 31.6461 23.3623 28.9962 23.5636 26.8968C23.6828 25.7012 24.677 24.6248 25.5151 23.9182C25.6484 23.8058 25.8061 23.7262 25.9756 23.6857C26.1451 23.6451 26.3218 23.6448 26.4914 23.6847C26.6611 23.7247 26.8191 23.8037 26.9527 23.9156C27.0864 24.0275 27.192 24.169 27.2612 24.329L28.5225 27.1803C28.6048 27.3638 28.6357 27.5663 28.6118 27.766C28.5879 27.9657 28.5102 28.1552 28.3869 28.3142L27.746 29.1358C27.6128 29.3064 27.5334 29.5128 27.5181 29.7287C27.5027 29.9446 27.552 30.1601 27.6597 30.3478C28.2685 31.2451 28.9969 32.0551 29.8248 32.7553C30.7156 33.6126 31.7258 34.3363 32.824 34.904C33.0244 34.9848 33.2443 35.0041 33.4558 34.9595C33.6672 34.9149 33.8606 34.8083 34.0113 34.6534L34.7467 33.9057C34.8866 33.7552 35.0655 33.6464 35.2634 33.5913C35.4614 33.5362 35.6707 33.5369 35.8683 33.5935L38.8674 34.4521C39.0374 34.5005 39.1935 34.5881 39.3233 34.7081C39.4531 34.828 39.5528 34.9768 39.6144 35.1424C39.676 35.308 39.6977 35.4857 39.6779 35.6613C39.658 35.8369 39.5971 36.0053 39.5001 36.153V36.153Z" fill="white"/>
</g>
<defs>
<clipPath id="clip0_333_44">
<rect width="64" height="64" fill="white" transform="translate(0.125)"/>
</clipPath>
</defs>
</svg>
